<?xml version="1.0" encoding="UTF-8" standalone="no"?>
<!DOCTYPE svg PUBLIC "-//W3C//DTD SVG 1.1//EN" "http://www.w3.org/Graphics/SVG/1.1/DTD/svg11.dtd">
<svg width="100%" height="100%" viewBox="0 0 191 71" version="1.1" xmlns="http://www.w3.org/2000/svg" xmlns:xlink="http://www.w3.org/1999/xlink" xml:space="preserve" xmlns:serif="http://www.serif.com/" style="fill-rule:evenodd;clip-rule:evenodd;stroke-linejoin:round;stroke-miterlimit:1.41421;">
    <g transform="matrix(1,0,0,1,-648.787,-234.176)">
        <g transform="matrix(1,0,0,1,486.666,109.686)">
            <path d="M188.407,124.491C180.101,124.544 171.526,126.919 166.461,133.711C162.178,139.455 161.613,147.879 165.453,153.838C169.355,159.894 176.771,162.958 183.618,165.542C187.565,167.059 191.963,168.831 193.267,172.723C194.099,175.208 193.489,178.138 191.618,180.016C188.739,182.905 184.063,183.26 179.579,182.917C174.638,182.54 169.775,181.204 165.313,179.05L165.067,178.928L162.122,190.899C170.33,195.23 180.604,195.924 189.496,194.251C196.262,192.978 202.99,189.429 206.269,183.337C209.664,177.03 209.426,168.692 205.215,163.002C201.218,157.603 194.387,155.027 188.597,152.744C183.151,150.576 176.596,147.664 177.978,142.02C178.071,141.642 178.201,141.274 178.366,140.922C178.509,140.617 178.677,140.324 178.868,140.047C181.259,136.567 186.238,136.033 190.583,136.316C194.702,136.584 198.724,137.685 202.546,139.337C202.546,139.337 205.694,127.665 205.694,127.665C200.287,125.281 194.306,124.478 188.407,124.491Z" style="fill:white;"/>
        </g>
        <g transform="matrix(1,0,0,1,496.666,109.686)">
            <path d="M220.261,125.519L220.261,193.844L263.489,193.844L263.489,181.987L235.498,181.987L234.998,181.487L234.998,165.03L235.498,164.53L260.507,164.53L260.507,152.776L235.498,152.776L234.998,152.276L234.998,137.876L235.498,137.376L261.947,137.376L261.947,125.519C248.051,125.519 234.156,125.519 220.261,125.519Z" style="fill:white;"/>
        </g>
        <path d="M797.871,235.204L817.704,235.204L825.006,258.639L817.457,283.337C814.419,272.28 811.446,261.213 808.582,250.209L807.611,250.22C807.611,250.22 807.366,251.188 807.179,251.868C802.518,268.87 797.252,285.74 792.416,302.69C792.337,302.97 792.258,303.25 792.181,303.53L776.988,303.53L797.871,235.204ZM838.993,303.53L823.075,303.53C825.29,295.955 828.284,285.763 830.783,277.181L838.993,303.53Z" style="fill:white;"/>
    </g>
</svg>
